<mxfile host="app.diagrams.net" modified="2023-10-19T11:11:35.403Z" agent="Mozilla/5.0 (Windows NT 10.0; Win64; x64) AppleWebKit/537.36 (KHTML, like Gecko) Chrome/118.0.0.0 Safari/537.36" etag="Q8oklbwXNOFtYaXbIZqL" version="22.0.5" type="github" pages="2">
  <diagram id="C5RBs43oDa-KdzZeNtuy" name="Main">
    <mxGraphModel dx="1434" dy="750" grid="1" gridSize="10" guides="1" tooltips="1" connect="1" arrows="1" fold="1" page="1" pageScale="1" pageWidth="827" pageHeight="1169" math="0" shadow="0">
      <root>
        <mxCell id="WIyWlLk6GJQsqaUBKTNV-0" />
        <mxCell id="WIyWlLk6GJQsqaUBKTNV-1" parent="WIyWlLk6GJQsqaUBKTNV-0" />
        <mxCell id="35rllB54dRZbqAm-aqpJ-1" value="Initialize client" style="rounded=1;whiteSpace=wrap;html=1;" parent="WIyWlLk6GJQsqaUBKTNV-1" vertex="1">
          <mxGeometry x="160" y="180" width="120" height="60" as="geometry" />
        </mxCell>
        <mxCell id="35rllB54dRZbqAm-aqpJ-6" style="edgeStyle=orthogonalEdgeStyle;rounded=0;orthogonalLoop=1;jettySize=auto;html=1;exitX=0.5;exitY=1;exitDx=0;exitDy=0;entryX=0.5;entryY=0;entryDx=0;entryDy=0;" parent="WIyWlLk6GJQsqaUBKTNV-1" source="35rllB54dRZbqAm-aqpJ-2" target="35rllB54dRZbqAm-aqpJ-3" edge="1">
          <mxGeometry relative="1" as="geometry" />
        </mxCell>
        <mxCell id="srdRvt1_RFBTnSwGxiiN-7" style="edgeStyle=orthogonalEdgeStyle;rounded=0;orthogonalLoop=1;jettySize=auto;html=1;exitX=1;exitY=0.5;exitDx=0;exitDy=0;entryX=0.5;entryY=0;entryDx=0;entryDy=0;" edge="1" parent="WIyWlLk6GJQsqaUBKTNV-1" source="35rllB54dRZbqAm-aqpJ-2" target="srdRvt1_RFBTnSwGxiiN-6">
          <mxGeometry relative="1" as="geometry" />
        </mxCell>
        <mxCell id="35rllB54dRZbqAm-aqpJ-2" value="User logs in" style="rounded=1;whiteSpace=wrap;html=1;" parent="WIyWlLk6GJQsqaUBKTNV-1" vertex="1">
          <mxGeometry x="360" y="180" width="120" height="60" as="geometry" />
        </mxCell>
        <mxCell id="35rllB54dRZbqAm-aqpJ-7" style="edgeStyle=orthogonalEdgeStyle;rounded=0;orthogonalLoop=1;jettySize=auto;html=1;exitX=1;exitY=0.5;exitDx=0;exitDy=0;entryX=0;entryY=0.5;entryDx=0;entryDy=0;" parent="WIyWlLk6GJQsqaUBKTNV-1" source="35rllB54dRZbqAm-aqpJ-3" target="srdRvt1_RFBTnSwGxiiN-6" edge="1">
          <mxGeometry relative="1" as="geometry">
            <mxPoint x="420" y="439.9999999999999" as="targetPoint" />
          </mxGeometry>
        </mxCell>
        <mxCell id="35rllB54dRZbqAm-aqpJ-5" value="" style="endArrow=classic;html=1;rounded=0;exitX=1;exitY=0.5;exitDx=0;exitDy=0;entryX=0;entryY=0.5;entryDx=0;entryDy=0;" parent="WIyWlLk6GJQsqaUBKTNV-1" source="35rllB54dRZbqAm-aqpJ-1" target="35rllB54dRZbqAm-aqpJ-2" edge="1">
          <mxGeometry width="50" height="50" relative="1" as="geometry">
            <mxPoint x="530" y="570" as="sourcePoint" />
            <mxPoint x="580" y="520" as="targetPoint" />
          </mxGeometry>
        </mxCell>
        <mxCell id="35rllB54dRZbqAm-aqpJ-9" value="" style="ellipse;whiteSpace=wrap;html=1;aspect=fixed;" parent="WIyWlLk6GJQsqaUBKTNV-1" vertex="1">
          <mxGeometry x="170" y="190" width="10" height="10" as="geometry" />
        </mxCell>
        <mxCell id="srdRvt1_RFBTnSwGxiiN-9" style="edgeStyle=orthogonalEdgeStyle;rounded=0;orthogonalLoop=1;jettySize=auto;html=1;exitX=0.5;exitY=1;exitDx=0;exitDy=0;entryX=0.5;entryY=0;entryDx=0;entryDy=0;" edge="1" parent="WIyWlLk6GJQsqaUBKTNV-1" source="35rllB54dRZbqAm-aqpJ-3" target="srdRvt1_RFBTnSwGxiiN-8">
          <mxGeometry relative="1" as="geometry" />
        </mxCell>
        <mxCell id="35rllB54dRZbqAm-aqpJ-3" value="Show main screen" style="rounded=1;whiteSpace=wrap;html=1;" parent="WIyWlLk6GJQsqaUBKTNV-1" vertex="1">
          <mxGeometry x="360" y="300" width="120" height="60" as="geometry" />
        </mxCell>
        <mxCell id="srdRvt1_RFBTnSwGxiiN-3" value="" style="ellipse;whiteSpace=wrap;html=1;aspect=fixed;" vertex="1" parent="WIyWlLk6GJQsqaUBKTNV-1">
          <mxGeometry x="370" y="190" width="10" height="10" as="geometry" />
        </mxCell>
        <mxCell id="srdRvt1_RFBTnSwGxiiN-4" value="" style="ellipse;whiteSpace=wrap;html=1;aspect=fixed;" vertex="1" parent="WIyWlLk6GJQsqaUBKTNV-1">
          <mxGeometry x="370" y="310" width="10" height="10" as="geometry" />
        </mxCell>
        <mxCell id="srdRvt1_RFBTnSwGxiiN-6" value="" style="ellipse;html=1;shape=endState;fillColor=#000000;strokeColor=#ff0000;" vertex="1" parent="WIyWlLk6GJQsqaUBKTNV-1">
          <mxGeometry x="620" y="315" width="30" height="30" as="geometry" />
        </mxCell>
        <mxCell id="srdRvt1_RFBTnSwGxiiN-10" style="edgeStyle=orthogonalEdgeStyle;rounded=0;orthogonalLoop=1;jettySize=auto;html=1;exitX=0;exitY=0.5;exitDx=0;exitDy=0;entryX=0.4;entryY=0.994;entryDx=0;entryDy=0;entryPerimeter=0;" edge="1" parent="WIyWlLk6GJQsqaUBKTNV-1" source="srdRvt1_RFBTnSwGxiiN-8" target="35rllB54dRZbqAm-aqpJ-3">
          <mxGeometry relative="1" as="geometry" />
        </mxCell>
        <mxCell id="srdRvt1_RFBTnSwGxiiN-8" value="Show specific chat" style="rounded=1;whiteSpace=wrap;html=1;" vertex="1" parent="WIyWlLk6GJQsqaUBKTNV-1">
          <mxGeometry x="360" y="420" width="120" height="60" as="geometry" />
        </mxCell>
        <mxCell id="SCAlDIovUt6G_998Jkqe-0" value="" style="ellipse;html=1;shape=startState;fillColor=#000000;strokeColor=#ff0000;" vertex="1" parent="WIyWlLk6GJQsqaUBKTNV-1">
          <mxGeometry x="60" y="190" width="30" height="30" as="geometry" />
        </mxCell>
        <mxCell id="SCAlDIovUt6G_998Jkqe-1" value="" style="edgeStyle=orthogonalEdgeStyle;html=1;verticalAlign=bottom;endArrow=open;endSize=8;strokeColor=#ff0000;rounded=0;entryX=0;entryY=0.5;entryDx=0;entryDy=0;" edge="1" source="SCAlDIovUt6G_998Jkqe-0" parent="WIyWlLk6GJQsqaUBKTNV-1">
          <mxGeometry relative="1" as="geometry">
            <mxPoint x="160" y="205" as="targetPoint" />
          </mxGeometry>
        </mxCell>
      </root>
    </mxGraphModel>
  </diagram>
  <diagram id="oeTkarAP5gjC3EuT0DNo" name="Initialize client">
    <mxGraphModel dx="1687" dy="882" grid="1" gridSize="10" guides="1" tooltips="1" connect="1" arrows="1" fold="1" page="1" pageScale="1" pageWidth="827" pageHeight="1169" math="0" shadow="0">
      <root>
        <mxCell id="0" />
        <mxCell id="1" parent="0" />
        <mxCell id="dUAmubDgKm-hz_GktTZl-17" value="" style="rounded=1;whiteSpace=wrap;html=1;" vertex="1" parent="1">
          <mxGeometry x="70" y="80" width="640" height="440" as="geometry" />
        </mxCell>
        <mxCell id="UYUOEFznQTIzYbjZKqhM-4" value="" style="endArrow=classic;html=1;rounded=0;entryX=0.503;entryY=0.633;entryDx=0;entryDy=0;entryPerimeter=0;" edge="1" parent="1" target="dUAmubDgKm-hz_GktTZl-3">
          <mxGeometry width="50" height="50" relative="1" as="geometry">
            <mxPoint x="10" y="360" as="sourcePoint" />
            <mxPoint x="180" y="359.9999999999999" as="targetPoint" />
            <Array as="points">
              <mxPoint x="281" y="360" />
            </Array>
          </mxGeometry>
        </mxCell>
        <mxCell id="dUAmubDgKm-hz_GktTZl-3" value="" style="shape=line;html=1;strokeWidth=6;strokeColor=#ff0000;" vertex="1" parent="1">
          <mxGeometry x="180" y="310" width="200" height="10" as="geometry" />
        </mxCell>
        <mxCell id="dUAmubDgKm-hz_GktTZl-5" value="" style="endArrow=classic;html=1;rounded=0;exitX=0;exitY=0.5;exitDx=0;exitDy=0;exitPerimeter=0;" edge="1" parent="1" source="dUAmubDgKm-hz_GktTZl-3" target="dUAmubDgKm-hz_GktTZl-6">
          <mxGeometry width="50" height="50" relative="1" as="geometry">
            <mxPoint x="390" y="390" as="sourcePoint" />
            <mxPoint x="180" y="260" as="targetPoint" />
          </mxGeometry>
        </mxCell>
        <mxCell id="dUAmubDgKm-hz_GktTZl-12" value="New daemon thread" style="edgeLabel;html=1;align=center;verticalAlign=middle;resizable=0;points=[];" vertex="1" connectable="0" parent="dUAmubDgKm-hz_GktTZl-5">
          <mxGeometry x="0.0413" relative="1" as="geometry">
            <mxPoint as="offset" />
          </mxGeometry>
        </mxCell>
        <mxCell id="dUAmubDgKm-hz_GktTZl-6" value="check_screen_size()" style="rounded=1;whiteSpace=wrap;html=1;" vertex="1" parent="1">
          <mxGeometry x="120" y="210" width="120" height="60" as="geometry" />
        </mxCell>
        <mxCell id="dUAmubDgKm-hz_GktTZl-7" value="" style="endArrow=classic;html=1;rounded=0;exitX=1;exitY=0.5;exitDx=0;exitDy=0;exitPerimeter=0;entryX=0.5;entryY=0;entryDx=0;entryDy=0;" edge="1" parent="1" source="dUAmubDgKm-hz_GktTZl-3" target="dUAmubDgKm-hz_GktTZl-8">
          <mxGeometry width="50" height="50" relative="1" as="geometry">
            <mxPoint x="390" y="390" as="sourcePoint" />
            <mxPoint x="380" y="370" as="targetPoint" />
          </mxGeometry>
        </mxCell>
        <mxCell id="dUAmubDgKm-hz_GktTZl-13" value="Main thread" style="edgeLabel;html=1;align=center;verticalAlign=middle;resizable=0;points=[];" vertex="1" connectable="0" parent="dUAmubDgKm-hz_GktTZl-7">
          <mxGeometry x="-0.2308" y="-1" relative="1" as="geometry">
            <mxPoint y="10" as="offset" />
          </mxGeometry>
        </mxCell>
        <mxCell id="dUAmubDgKm-hz_GktTZl-16" style="edgeStyle=orthogonalEdgeStyle;rounded=0;orthogonalLoop=1;jettySize=auto;html=1;exitX=1;exitY=0.5;exitDx=0;exitDy=0;entryX=0;entryY=0.5;entryDx=0;entryDy=0;" edge="1" parent="1" source="dUAmubDgKm-hz_GktTZl-8" target="dUAmubDgKm-hz_GktTZl-15">
          <mxGeometry relative="1" as="geometry" />
        </mxCell>
        <mxCell id="dUAmubDgKm-hz_GktTZl-8" value="Create screens" style="rounded=1;whiteSpace=wrap;html=1;" vertex="1" parent="1">
          <mxGeometry x="320" y="380" width="120" height="60" as="geometry" />
        </mxCell>
        <mxCell id="dUAmubDgKm-hz_GktTZl-10" style="edgeStyle=orthogonalEdgeStyle;rounded=0;orthogonalLoop=1;jettySize=auto;html=1;exitX=0.5;exitY=0;exitDx=0;exitDy=0;entryX=1;entryY=0.5;entryDx=0;entryDy=0;" edge="1" parent="1" source="dUAmubDgKm-hz_GktTZl-6" target="dUAmubDgKm-hz_GktTZl-6">
          <mxGeometry relative="1" as="geometry" />
        </mxCell>
        <mxCell id="dUAmubDgKm-hz_GktTZl-22" style="edgeStyle=orthogonalEdgeStyle;rounded=0;orthogonalLoop=1;jettySize=auto;html=1;exitX=1;exitY=0.5;exitDx=0;exitDy=0;" edge="1" parent="1" source="dUAmubDgKm-hz_GktTZl-15">
          <mxGeometry relative="1" as="geometry">
            <mxPoint x="810" y="315" as="targetPoint" />
          </mxGeometry>
        </mxCell>
        <mxCell id="dUAmubDgKm-hz_GktTZl-15" value="Setup login screen" style="rounded=1;whiteSpace=wrap;html=1;" vertex="1" parent="1">
          <mxGeometry x="520" y="285" width="120" height="60" as="geometry" />
        </mxCell>
        <mxCell id="dUAmubDgKm-hz_GktTZl-18" value="" style="endArrow=none;html=1;rounded=0;entryX=1;entryY=0.157;entryDx=0;entryDy=0;entryPerimeter=0;exitX=0.002;exitY=0.158;exitDx=0;exitDy=0;exitPerimeter=0;" edge="1" parent="1" source="dUAmubDgKm-hz_GktTZl-17" target="dUAmubDgKm-hz_GktTZl-17">
          <mxGeometry width="50" height="50" relative="1" as="geometry">
            <mxPoint x="70" y="176" as="sourcePoint" />
            <mxPoint x="400" y="310" as="targetPoint" />
          </mxGeometry>
        </mxCell>
        <mxCell id="dUAmubDgKm-hz_GktTZl-19" value="&lt;font style=&quot;font-size: 26px;&quot;&gt;Initialize client&lt;/font&gt;" style="text;html=1;align=center;verticalAlign=middle;resizable=0;points=[];autosize=1;strokeColor=none;fillColor=none;" vertex="1" parent="1">
          <mxGeometry x="295" y="95" width="190" height="40" as="geometry" />
        </mxCell>
      </root>
    </mxGraphModel>
  </diagram>
</mxfile>
